<svg xmlns="http://www.w3.org/2000/svg" viewBox="0 0 512 512">
  <defs>
    <linearGradient id="bg" x1="0" y1="0" x2="1" y2="1">
      <stop offset="0%" stop-color="#2D1B69"/>
      <stop offset="100%" stop-color="#1A0A3E"/>
    </linearGradient>
    <linearGradient id="accent" x1="0" y1="0" x2="1" y2="1">
      <stop offset="0%" stop-color="#F0C27F"/>
      <stop offset="100%" stop-color="#E4A96D"/>
    </linearGradient>
  </defs>
  <rect width="512" height="512" rx="108" fill="url(#bg)"/>
  <!-- Bell/alarm icon -->
  <path d="M256 100c-8 0-15 3-20 8-55 12-96 62-96 120v68l-24 32c-4 5-5 12-2 18s9 10 16 10h80c0 22 18 40 46 40s46-18 46-40h80c7 0 13-4 16-10s2-13-2-18l-24-32v-68c0-58-41-108-96-120-5-5-12-8-20-8z" fill="url(#accent)"/>
  <!-- Bell clapper dot -->
  <circle cx="256" cy="406" r="18" fill="url(#accent)" opacity="0.6"/>
</svg>
