<svg xmlns="http://www.w3.org/2000/svg" viewBox="0 0 512 512">
  <defs>
    <linearGradient id="bg" x1="0" y1="0" x2="1" y2="1">
      <stop offset="0%" stop-color="#2D1B69"/>
      <stop offset="100%" stop-color="#1A0A3E"/>
    </linearGradient>
    <linearGradient id="gold" x1="0" y1="0" x2="0" y2="1">
      <stop offset="0%" stop-color="#F0C27F"/>
      <stop offset="100%" stop-color="#E4A96D"/>
    </linearGradient>
  </defs>
  <rect width="512" height="512" rx="108" fill="url(#bg)"/>
  <g transform="translate(256,260)">
    <!-- Bell body -->
    <path d="M0-120 C-12-120-22-116-30-108 C-62-80-80-44-80 0 L-80 50 L-100 80 C-104 86-100 94-92 94 L92 94 C100 94 104 86 100 80 L80 50 L80 0 C80-44 62-80 30-108 C22-116 12-120 0-120Z" fill="url(#gold)"/>
    <!-- Bell top knob -->
    <circle cx="0" cy="-130" r="16" fill="url(#gold)"/>
    <!-- Bell clapper -->
    <ellipse cx="0" cy="110" rx="30" ry="20" fill="url(#gold)" opacity="0.7"/>
  </g>
</svg>
